<svg xmlns="http://www.w3.org/2000/svg" width="408" height="408" viewBox="0 0 408 408" version="1.1"><path d="M 31.252 89.500 C 31.263 91.700, 31.468 92.482, 31.707 91.238 C 31.946 89.994, 31.937 88.194, 31.687 87.238 C 31.437 86.282, 31.241 87.300, 31.252 89.500 M 136.336 139 C 136.336 143.125, 136.513 144.813, 136.728 142.750 C 136.944 140.688, 136.944 137.313, 136.728 135.250 C 136.513 133.188, 136.336 134.875, 136.336 139 M 144 369.187 C 138.197 372.026, 125.923 375.852, 118.696 377.074 C 108.635 378.775, 86.301 377.758, 76.972 375.174 C 70.753 373.451, 68.407 373.247, 63.472 373.998 C 49.673 376.098, 39 381.386, 39 386.123 C 39 391.714, 54.902 397.354, 81.420 401.168 C 101.351 404.035, 158.974 404.921, 176.419 402.628 C 182.974 401.767, 188.802 400.598, 189.369 400.031 C 190.077 399.323, 189.730 399, 188.260 399 C 184.372 399, 168.274 389.940, 161.874 384.149 C 158.440 381.042, 153.801 376.019, 151.565 372.987 L 147.500 367.475 144 369.187" stroke="none" fill="#d0d9e2" fill-rule="evenodd"/><path d="M 280.423 111.403 C 261.072 116.102, 231.060 135.042, 216.157 151.960 C 208.097 161.111, 204.475 166.482, 201.296 174 C 198.957 179.532, 198.544 181.914, 198.524 190 C 198.502 198.597, 198.796 200.118, 201.610 206 C 210.266 224.089, 235.318 241.126, 256.840 243.561 C 264.191 244.393, 272.719 242.662, 280.445 238.770 C 301.890 227.965, 319.039 188.102, 318.985 149.178 C 318.948 122.188, 310.648 109.943, 292.500 110.107 C 288.650 110.142, 283.215 110.725, 280.423 111.403" stroke="none" fill="#7f551b" fill-rule="evenodd"/><path d="M 355.762 1.707 C 357.006 1.946, 358.806 1.937, 359.762 1.687 C 360.718 1.437, 359.700 1.241, 357.500 1.252 C 355.300 1.263, 354.518 1.468, 355.762 1.707 M 350.250 23.689 C 351.212 23.941, 352.788 23.941, 353.750 23.689 C 354.712 23.438, 353.925 23.232, 352 23.232 C 350.075 23.232, 349.288 23.438, 350.250 23.689 M 53.678 55.727 C 48.374 74.887, 47.619 101.809, 51.947 117.500 C 58.282 140.468, 75.859 157.527, 100.845 164.957 C 104.885 166.158, 108.800 166.907, 109.546 166.621 C 111.905 165.715, 116.893 155.766, 118.476 148.807 C 120.396 140.364, 120.412 131.654, 118.525 121.793 C 115.786 107.479, 112.091 98.423, 104.148 86.557 C 94.451 72.073, 84.127 63.056, 68.629 55.539 C 55.005 48.930, 55.562 48.923, 53.678 55.727 M 379.232 53 C 379.232 54.925, 379.438 55.712, 379.689 54.750 C 379.941 53.788, 379.941 52.212, 379.689 51.250 C 379.438 50.288, 379.232 51.075, 379.232 53 M 103 60.500 C 105.987 63.525, 108.657 66, 108.932 66 C 109.207 66, 106.987 63.525, 104 60.500 C 101.013 57.475, 98.343 55, 98.068 55 C 97.793 55, 100.013 57.475, 103 60.500 M 284.861 57.059 L 282.500 59.119 285.250 57.444 C 286.762 56.523, 288 55.597, 288 55.385 C 288 54.604, 287.165 55.050, 284.861 57.059 M 379.272 73 C 379.272 75.475, 379.467 76.487, 379.706 75.250 C 379.944 74.013, 379.944 71.987, 379.706 70.750 C 379.467 69.513, 379.272 70.525, 379.272 73 M 378.195 85.500 C 378.215 87.150, 378.439 87.704, 378.693 86.731 C 378.947 85.758, 378.930 84.408, 378.656 83.731 C 378.382 83.054, 378.175 83.850, 378.195 85.500 M 377.195 95.500 C 377.215 97.150, 377.439 97.704, 377.693 96.731 C 377.947 95.758, 377.930 94.408, 377.656 93.731 C 377.382 93.054, 377.175 93.850, 377.195 95.500 M 376.195 106.500 C 376.215 108.150, 376.439 108.704, 376.693 107.731 C 376.947 106.758, 376.930 105.408, 376.656 104.731 C 376.382 104.054, 376.175 104.850, 376.195 106.500 M 402.300 109 C 402.300 112.025, 402.487 113.263, 402.716 111.750 C 402.945 110.237, 402.945 107.763, 402.716 106.250 C 402.487 104.737, 402.300 105.975, 402.300 109 M 375.195 116.500 C 375.215 118.150, 375.439 118.704, 375.693 117.731 C 375.947 116.758, 375.930 115.408, 375.656 114.731 C 375.382 114.054, 375.175 114.850, 375.195 116.500 M 155.924 125.750 L 153.500 128.500 156.250 126.076 C 158.820 123.810, 159.459 123, 158.674 123 C 158.495 123, 157.258 124.237, 155.924 125.750 M 182.924 128.750 L 180.500 131.500 183.250 129.076 C 185.820 126.810, 186.459 126, 185.674 126 C 185.495 126, 184.258 127.237, 182.924 128.750 M 374.195 128.500 C 374.215 130.150, 374.439 130.704, 374.693 129.731 C 374.947 128.758, 374.930 127.408, 374.656 126.731 C 374.382 126.054, 374.175 126.850, 374.195 128.500 M 172.473 138.250 L 165.500 145.500 172.750 138.527 C 179.484 132.050, 180.457 131, 179.723 131 C 179.571 131, 176.308 134.262, 172.473 138.250 M 401.232 136 C 401.232 137.925, 401.438 138.713, 401.689 137.750 C 401.941 136.787, 401.941 135.213, 401.689 134.250 C 401.438 133.287, 401.232 134.075, 401.232 136 M 319.195 149.500 C 319.215 151.150, 319.439 151.704, 319.693 150.731 C 319.947 149.758, 319.930 148.408, 319.656 147.731 C 319.382 147.054, 319.175 147.850, 319.195 149.500 M 400.195 157.500 C 400.215 159.150, 400.439 159.704, 400.693 158.731 C 400.947 157.758, 400.930 156.408, 400.656 155.731 C 400.382 155.054, 400.175 155.850, 400.195 157.500 M 57.500 160 C 59.648 162.200, 61.631 164, 61.906 164 C 62.181 164, 60.648 162.200, 58.500 160 C 56.352 157.800, 54.369 156, 54.094 156 C 53.819 156, 55.352 157.800, 57.500 160 M 176 212.500 C 177.292 213.875, 178.574 215, 178.849 215 C 179.124 215, 178.292 213.875, 177 212.500 C 175.708 211.125, 174.426 210, 174.151 210 C 173.876 210, 174.708 211.125, 176 212.500 M 191.071 234.500 C 191.071 235.050, 191.714 236.625, 192.500 238 C 193.286 239.375, 193.929 240.050, 193.929 239.500 C 193.929 238.950, 193.286 237.375, 192.500 236 C 191.714 234.625, 191.071 233.950, 191.071 234.500 M 203.784 257.738 C 206.689 257.941, 211.189 257.939, 213.784 257.734 C 216.378 257.528, 214 257.363, 208.500 257.365 C 203 257.368, 200.878 257.536, 203.784 257.738 M 324.946 277.750 L 321.500 281.500 325.250 278.054 C 327.313 276.158, 329 274.471, 329 274.304 C 329 273.540, 328.154 274.260, 324.946 277.750 M 273.080 295 C 274.538 298.061, 275 298.628, 275 297.358 C 275 296.821, 274.300 295.509, 273.445 294.441 C 271.978 292.611, 271.958 292.643, 273.080 295 M 277.030 303.628 C 276.976 305.633, 279.420 306.989, 281.034 305.848 C 282.247 304.990, 282.202 304.907, 280.776 305.364 C 279.752 305.693, 278.649 305.224, 278.057 304.208 C 277.509 303.269, 277.047 303.007, 277.030 303.628 M 317 341.447 C 306.638 343.786, 296.467 349.720, 288.192 358.252 C 282.808 363.804, 283.124 365.994, 290.381 373.410 C 296.076 379.231, 304.922 384.008, 315 386.707 C 323.683 389.032, 341.146 389.008, 350 386.660 C 359.339 384.183, 371.818 377.718, 378.074 372.114 C 383.037 367.670, 383.354 367.130, 381.987 365.463 C 378.842 361.627, 364.429 351.807, 355.666 347.530 C 341.653 340.691, 329.097 338.715, 317 341.447 M 396.500 360 C 399.209 362.750, 401.650 365, 401.925 365 C 402.200 365, 400.209 362.750, 397.500 360 C 394.791 357.250, 392.350 355, 392.075 355 C 391.800 355, 393.791 357.250, 396.500 360 M 395.437 378.250 L 392.500 381.500 395.750 378.563 C 397.538 376.948, 399 375.485, 399 375.313 C 399 374.540, 398.175 375.221, 395.437 378.250 M 331.750 403.706 C 332.988 403.944, 335.012 403.944, 336.250 403.706 C 337.488 403.467, 336.475 403.272, 334 403.272 C 331.525 403.272, 330.512 403.467, 331.750 403.706" stroke="none" fill="#8aaa69" fill-rule="evenodd"/><path d="M 101.250 179.689 C 102.213 179.941, 103.787 179.941, 104.750 179.689 C 105.713 179.438, 104.925 179.232, 103 179.232 C 101.075 179.232, 100.287 179.438, 101.250 179.689 M 113.250 180.689 C 114.213 180.941, 115.787 180.941, 116.750 180.689 C 117.713 180.438, 116.925 180.232, 115 180.232 C 113.075 180.232, 112.287 180.438, 113.250 180.689 M 91.500 193.926 C 51.915 200.391, 23.241 231.443, 19.376 272.030 C 18.220 284.163, 21.426 300.162, 27.853 314.337 C 35.199 330.538, 50.785 345.865, 68.181 353.993 C 82.683 360.770, 101.294 363.312, 116.707 360.622 C 125.177 359.144, 138.472 354.928, 140.240 353.160 C 140.649 352.751, 140.335 349.320, 139.543 345.534 C 138.178 339.014, 137.717 338.262, 130.801 331.298 C 121.492 321.923, 119.184 321.191, 106.272 323.515 C 101.116 324.444, 95.373 324.917, 93.509 324.568 C 87.311 323.405, 81.930 314.022, 84.103 308.165 C 84.647 306.699, 86.871 302.056, 89.046 297.847 C 94.368 287.546, 94.284 284.625, 88.334 273.346 C 82.815 262.884, 82.293 258.115, 86.065 252.610 C 90.210 246.561, 93.216 246.002, 107.932 248.542 C 119.189 250.484, 121.653 249.621, 130.338 240.697 C 137.946 232.879, 140.904 231, 145.597 231 C 149.755 231, 155.459 234.122, 157.182 237.339 C 157.818 238.528, 159.130 244.379, 160.099 250.343 C 161.937 261.671, 162.955 263.718, 168.423 267.088 C 171.230 268.817, 171.450 268.818, 173.923 267.107 C 175.341 266.126, 178.636 264.464, 181.246 263.412 C 183.857 262.360, 185.989 261.050, 185.984 260.500 C 185.980 259.950, 185.361 257.250, 184.610 254.500 C 176.964 226.525, 154.306 203.978, 125.815 195.993 C 117.627 193.698, 99.559 192.610, 91.500 193.926 M 202.500 269.100 C 182.931 271.111, 166.777 281.599, 156.661 298.861 C 145.962 317.116, 146.575 342.652, 158.125 359.950 C 167.515 374.011, 181.169 383.375, 196.912 386.550 C 226.389 392.495, 256.303 374.454, 265.161 345.391 C 267.921 336.332, 268.116 321.063, 265.579 312.500 C 263.421 305.216, 257.998 294.984, 253.526 289.759 C 249.550 285.114, 239.969 277.542, 234.593 274.795 C 225.823 270.315, 212.936 268.028, 202.500 269.100 M 199.334 293.082 C 193.289 299.518, 190.920 300.400, 183.464 298.993 C 175.595 297.508, 172.047 298.840, 170.623 303.813 C 169.811 306.649, 170.155 308.118, 173.007 314.015 L 176.340 320.904 173.170 327.782 C 169.292 336.196, 169.224 338.376, 172.738 341.633 C 175.252 343.963, 175.929 344.108, 180.988 343.405 C 190.240 342.121, 191.692 342.518, 197.653 347.965 C 201.692 351.657, 203.958 353, 206.146 353 C 212.173 353, 214.049 350.350, 215.468 339.832 C 216.175 334.593, 216.947 333.745, 224.872 329.500 C 234.934 324.110, 234.404 317.554, 223.460 312.055 C 217.936 309.279, 216.907 308.325, 216.030 305.166 C 215.469 303.150, 215.009 300.465, 215.006 299.200 C 214.998 296.086, 212.409 291.289, 210.055 290.030 C 206.292 288.016, 203.290 288.870, 199.334 293.082 M 281.195 338.500 C 281.215 340.150, 281.439 340.704, 281.693 339.731 C 281.947 338.758, 281.930 337.408, 281.656 336.731 C 281.382 336.054, 281.175 336.850, 281.195 338.500 M 93.269 377.693 C 94.242 377.947, 95.592 377.930, 96.269 377.656 C 96.946 377.382, 96.150 377.175, 94.500 377.195 C 92.850 377.215, 92.296 377.439, 93.269 377.693 M 105.750 377.706 C 106.987 377.944, 109.013 377.944, 110.250 377.706 C 111.487 377.467, 110.475 377.272, 108 377.272 C 105.525 377.272, 104.513 377.467, 105.750 377.706" stroke="none" fill="#2b5175" fill-rule="evenodd"/><path d="M 80.500 182.888 C 74.450 184.474, 66.575 187.027, 63 188.562 C 54.873 192.050, 42.149 200.270, 35.220 206.509 C 23.571 216.997, 12.639 235.052, 7.374 252.500 C 4.890 260.732, 4.654 262.951, 4.616 278.500 C 4.579 293.050, 4.890 296.632, 6.772 303.354 C 9.252 312.211, 16.270 327.626, 20.861 334.297 C 36.419 356.910, 59.622 371.519, 88 376.569 C 92.201 377.317, 112.215 377.314, 115.892 376.566 C 117.326 376.273, 120.075 375.778, 122 375.466 C 127.441 374.581, 135.936 371.964, 142.275 369.218 C 145.451 367.842, 148.176 366.893, 148.331 367.108 C 156.903 379.074, 163.375 385.351, 173.084 391.119 C 184.387 397.834, 192.654 400.216, 206.500 400.747 C 221.406 401.318, 228.807 399.762, 242 393.286 C 250.062 389.328, 252.889 387.226, 260.677 379.402 C 268.131 371.914, 270.612 368.617, 273.888 361.841 C 279.602 350.024, 281.383 342.478, 281.404 330 C 281.425 317.956, 280.078 311.534, 275.343 301.109 C 269.414 288.056, 261.793 278.839, 250.625 271.210 C 237.425 262.194, 226.331 258.718, 210.345 258.590 L 199.191 258.500 197.530 252.500 C 192.293 233.572, 176.115 209.702, 162.154 200.305 C 159.044 198.212, 156.275 196.226, 156 195.892 C 155.334 195.082, 138.304 186.576, 134.500 185.154 C 127.211 182.428, 117.535 180.890, 105 180.463 C 92.509 180.038, 90.678 180.219, 80.500 182.888 M 91.500 193.926 C 51.915 200.391, 23.241 231.443, 19.376 272.030 C 18.220 284.163, 21.426 300.162, 27.853 314.337 C 35.199 330.538, 50.785 345.865, 68.181 353.993 C 82.683 360.770, 101.294 363.312, 116.707 360.622 C 125.177 359.144, 138.472 354.928, 140.240 353.160 C 140.649 352.751, 140.335 349.320, 139.543 345.534 C 138.178 339.014, 137.717 338.262, 130.801 331.298 C 121.492 321.923, 119.184 321.191, 106.272 323.515 C 101.116 324.444, 95.373 324.917, 93.509 324.568 C 87.311 323.405, 81.930 314.022, 84.103 308.165 C 84.647 306.699, 86.871 302.056, 89.046 297.847 C 94.368 287.546, 94.284 284.625, 88.334 273.346 C 82.815 262.884, 82.293 258.115, 86.065 252.610 C 90.210 246.561, 93.216 246.002, 107.932 248.542 C 119.189 250.484, 121.653 249.621, 130.338 240.697 C 137.946 232.879, 140.904 231, 145.597 231 C 149.755 231, 155.459 234.122, 157.182 237.339 C 157.818 238.528, 159.130 244.379, 160.099 250.343 C 161.937 261.671, 162.955 263.718, 168.423 267.088 C 171.230 268.817, 171.450 268.818, 173.923 267.107 C 175.341 266.126, 178.636 264.464, 181.246 263.412 C 183.857 262.360, 185.989 261.050, 185.984 260.500 C 185.980 259.950, 185.361 257.250, 184.610 254.500 C 176.964 226.525, 154.306 203.978, 125.815 195.993 C 117.627 193.698, 99.559 192.610, 91.500 193.926 M 202.500 269.100 C 182.931 271.111, 166.777 281.599, 156.661 298.861 C 145.962 317.116, 146.575 342.652, 158.125 359.950 C 167.515 374.011, 181.169 383.375, 196.912 386.550 C 226.389 392.495, 256.303 374.454, 265.161 345.391 C 267.921 336.332, 268.116 321.063, 265.579 312.500 C 263.421 305.216, 257.998 294.984, 253.526 289.759 C 249.550 285.114, 239.969 277.542, 234.593 274.795 C 225.823 270.315, 212.936 268.028, 202.500 269.100 M 199.334 293.082 C 193.289 299.518, 190.920 300.400, 183.464 298.993 C 175.595 297.508, 172.047 298.840, 170.623 303.813 C 169.811 306.649, 170.155 308.118, 173.007 314.015 L 176.340 320.904 173.170 327.782 C 169.292 336.196, 169.224 338.376, 172.738 341.633 C 175.252 343.963, 175.929 344.108, 180.988 343.405 C 190.240 342.121, 191.692 342.518, 197.653 347.965 C 201.692 351.657, 203.958 353, 206.146 353 C 212.173 353, 214.049 350.350, 215.468 339.832 C 216.175 334.593, 216.947 333.745, 224.872 329.500 C 234.934 324.110, 234.404 317.554, 223.460 312.055 C 217.936 309.279, 216.907 308.325, 216.030 305.166 C 215.469 303.150, 215.009 300.465, 215.006 299.200 C 214.998 296.086, 212.409 291.289, 210.055 290.030 C 206.292 288.016, 203.290 288.870, 199.334 293.082" stroke="none" fill="#013155" fill-rule="evenodd"/><path d="M 342.500 4.420 C 324.497 10.413, 313.053 17.181, 228 72.136 C 188.372 97.740, 156.029 123.455, 142.246 140.317 L 136.500 147.346 135.823 134.423 C 134.276 104.881, 122.918 79.774, 101.963 59.573 C 88.437 46.534, 71.656 36.655, 55.500 32.221 C 43.775 29.002, 42.543 30.188, 37.518 49.527 C 31.393 73.100, 30.379 100.522, 34.949 119 C 37.229 128.219, 44.611 144.209, 48.547 148.457 C 49.896 149.912, 51 151.429, 51 151.828 C 51 153.542, 65.086 166.184, 71.500 170.225 C 84.510 178.424, 88.790 179.719, 103 179.757 C 116.157 179.793, 128.790 182.044, 137.532 185.911 L 141.791 187.795 142.375 184.877 C 143.362 179.942, 149.713 167.154, 155.487 158.477 C 160.967 150.241, 176.025 134.062, 185.500 126.230 C 208.412 107.292, 208.392 107.307, 275.500 63.197 C 289.800 53.797, 302.044 45.633, 302.708 45.053 C 303.372 44.474, 304.199 44, 304.544 44 C 304.890 44, 307.047 42.723, 309.337 41.161 C 322.480 32.200, 329.307 28.572, 338 25.928 C 348.751 22.657, 355.891 22.861, 364.099 26.673 C 380.092 34.101, 382.479 46.720, 377.586 98 C 376.143 113.125, 374.271 132.925, 373.426 142 C 369.155 187.849, 362.841 215.592, 350.931 240.842 C 337.005 270.365, 314.531 292.235, 286.049 303.980 C 280.798 306.145, 278.899 306.535, 277.900 305.651 C 276.845 304.720, 276.824 304.803, 277.787 306.089 C 280.346 309.504, 282.256 323.103, 281.703 333.973 C 281.104 345.769, 278.995 353.411, 273.405 364.048 L 269.833 370.846 271.590 374.549 C 277.151 386.267, 295.465 397.399, 316.043 401.569 C 328.495 404.092, 347.638 403.173, 359 399.506 C 376.319 393.918, 391.035 384.301, 401.750 371.570 C 404.222 368.632, 402.935 366.213, 394.686 358.294 C 382.592 346.683, 364.462 335.184, 351.750 331.061 C 349.688 330.392, 348.003 329.542, 348.007 329.172 C 348.010 328.803, 350.718 325.858, 354.023 322.629 C 374.349 302.772, 389.538 266.033, 395.433 222.470 C 400.233 186.994, 404.580 74.324, 402.165 48 C 400.382 28.573, 395.238 16.886, 385.211 9.486 C 374.832 1.826, 356.737 -0.320, 342.500 4.420 M 53.678 55.727 C 48.374 74.887, 47.619 101.809, 51.947 117.500 C 58.282 140.468, 75.859 157.527, 100.845 164.957 C 104.885 166.158, 108.800 166.907, 109.546 166.621 C 111.905 165.715, 116.893 155.766, 118.476 148.807 C 120.396 140.364, 120.412 131.654, 118.525 121.793 C 115.786 107.479, 112.091 98.423, 104.148 86.557 C 94.451 72.073, 84.127 63.056, 68.629 55.539 C 55.005 48.930, 55.562 48.923, 53.678 55.727 M 317 341.447 C 306.638 343.786, 296.467 349.720, 288.192 358.252 C 282.808 363.804, 283.124 365.994, 290.381 373.410 C 296.076 379.231, 304.922 384.008, 315 386.707 C 323.683 389.032, 341.146 389.008, 350 386.660 C 359.339 384.183, 371.818 377.718, 378.074 372.114 C 383.037 367.670, 383.354 367.130, 381.987 365.463 C 378.842 361.627, 364.429 351.807, 355.666 347.530 C 341.653 340.691, 329.097 338.715, 317 341.447" stroke="none" fill="#447921" fill-rule="evenodd"/><path d="M 339.500 25.837 C 328.017 29.275, 329.606 28.312, 258.295 75 C 224.131 97.367, 203.162 112.126, 191.015 122.355 C 177.277 133.923, 165.189 145.950, 158.866 154.340 C 152.483 162.809, 144.228 178.709, 143.395 184.138 C 142.895 187.395, 143.076 187.606, 149.189 190.907 C 173.153 203.844, 191.702 226.911, 198.003 251.611 L 199.307 256.722 211.403 257.268 C 225.200 257.891, 234.712 260.430, 245.183 266.285 C 257.602 273.231, 270.440 287.236, 276.284 300.214 L 278.856 305.928 283.420 304.373 C 297.964 299.417, 315.693 287.436, 328.362 274.001 C 349.700 251.374, 363.836 215.691, 369.957 169 C 371.853 154.545, 376.690 104.478, 379.106 74.310 C 380.777 53.447, 378.281 38.703, 371.966 32.122 C 365.333 25.211, 350.915 22.419, 339.500 25.837 M 279 111.551 C 261.327 116.472, 238.693 130.065, 221.693 145.968 C 213.067 154.038, 206.627 162.596, 202.106 172 C 198.670 179.147, 198.500 179.994, 198.500 190 C 198.500 199.677, 198.735 200.967, 201.500 206.453 C 209.467 222.262, 231.260 238.252, 250.750 242.588 C 275.457 248.085, 295.232 234.821, 308.281 204 C 315.498 186.954, 319.157 168.836, 319.187 150 C 319.218 130.486, 315.505 119.394, 306.959 113.471 C 303.216 110.878, 301.858 110.555, 293.646 110.302 C 287.682 110.118, 282.586 110.553, 279 111.551" stroke="none" fill="#f5ce1d" fill-rule="evenodd"/></svg>